<mxfile host="app.diagrams.net" agent="Mozilla/5.0 (X11; Linux x86_64) AppleWebKit/537.36 (KHTML, like Gecko) Chrome/134.0.0.0 Safari/537.36" version="26.2.6">
  <diagram name="Page-1" id="41kAqGqCdxrdHtbHoZ40">
    <mxGraphModel dx="4017" dy="2375" grid="1" gridSize="10" guides="1" tooltips="1" connect="1" arrows="1" fold="1" page="1" pageScale="1" pageWidth="1169" pageHeight="827" background="none" math="0" shadow="0">
      <root>
        <mxCell id="0" />
        <mxCell id="1" parent="0" />
        <mxCell id="1RPcp6b-KM-TzmGu6j6Q-22" value="&lt;font face=&quot;Architects Daughter&quot; style=&quot;font-size: 24px;&quot;&gt;Public Server&lt;/font&gt;" style="rounded=0;whiteSpace=wrap;html=1;glass=0;sketch=1;curveFitting=1;jiggle=2;strokeColor=default;gradientColor=none;labelPosition=center;verticalLabelPosition=top;align=center;verticalAlign=bottom;" vertex="1" parent="1">
          <mxGeometry x="-575" y="-130" width="490" height="330" as="geometry" />
        </mxCell>
        <mxCell id="1RPcp6b-KM-TzmGu6j6Q-23" value="&lt;font style=&quot;font-size: 20px;&quot;&gt;Docker&lt;/font&gt;" style="rounded=0;whiteSpace=wrap;html=1;sketch=1;hachureGap=4;jiggle=2;curveFitting=1;fontFamily=Architects Daughter;fontSource=https%3A%2F%2Ffonts.googleapis.com%2Fcss%3Ffamily%3DArchitects%2BDaughter;dashed=1;dashPattern=12 12;labelPosition=left;verticalLabelPosition=top;align=right;verticalAlign=bottom;" vertex="1" parent="1">
          <mxGeometry x="-485" y="-90" width="310" height="140" as="geometry" />
        </mxCell>
        <mxCell id="1RPcp6b-KM-TzmGu6j6Q-27" style="edgeStyle=orthogonalEdgeStyle;rounded=0;sketch=1;hachureGap=4;jiggle=2;curveFitting=1;orthogonalLoop=1;jettySize=auto;html=1;exitX=0.5;exitY=1;exitDx=0;exitDy=0;entryX=0.5;entryY=0;entryDx=0;entryDy=0;fontFamily=Architects Daughter;fontSource=https%3A%2F%2Ffonts.googleapis.com%2Fcss%3Ffamily%3DArchitects%2BDaughter;curved=1;" edge="1" parent="1" source="1RPcp6b-KM-TzmGu6j6Q-24" target="1RPcp6b-KM-TzmGu6j6Q-25">
          <mxGeometry relative="1" as="geometry" />
        </mxCell>
        <mxCell id="1RPcp6b-KM-TzmGu6j6Q-24" value="&lt;font style=&quot;font-size: 20px;&quot;&gt;Traefik&lt;/font&gt;" style="rounded=0;whiteSpace=wrap;html=1;sketch=1;hachureGap=4;jiggle=2;curveFitting=1;fontFamily=Architects Daughter;fontSource=https%3A%2F%2Ffonts.googleapis.com%2Fcss%3Ffamily%3DArchitects%2BDaughter;" vertex="1" parent="1">
          <mxGeometry x="-465" y="-50" width="270" height="60" as="geometry" />
        </mxCell>
        <mxCell id="1RPcp6b-KM-TzmGu6j6Q-25" value="&lt;font style=&quot;font-size: 20px;&quot;&gt;inlets-pro tcp server&lt;/font&gt;" style="rounded=0;whiteSpace=wrap;html=1;sketch=1;hachureGap=4;jiggle=2;curveFitting=1;fontFamily=Architects Daughter;fontSource=https%3A%2F%2Ffonts.googleapis.com%2Fcss%3Ffamily%3DArchitects%2BDaughter;" vertex="1" parent="1">
          <mxGeometry x="-485" y="100" width="310" height="60" as="geometry" />
        </mxCell>
        <mxCell id="1RPcp6b-KM-TzmGu6j6Q-26" value="" style="shape=umlActor;verticalLabelPosition=bottom;verticalAlign=top;html=1;outlineConnect=0;hachureGap=4;fontFamily=Architects Daughter;fontSource=https%3A%2F%2Ffonts.googleapis.com%2Fcss%3Ffamily%3DArchitects%2BDaughter;sketch=1;curveFitting=1;jiggle=2;" vertex="1" parent="1">
          <mxGeometry x="-675" y="-125" width="30" height="60" as="geometry" />
        </mxCell>
        <mxCell id="1RPcp6b-KM-TzmGu6j6Q-29" style="edgeStyle=orthogonalEdgeStyle;rounded=0;sketch=1;hachureGap=4;jiggle=2;curveFitting=1;orthogonalLoop=1;jettySize=auto;html=1;exitX=1;exitY=0.5;exitDx=0;exitDy=0;entryX=0;entryY=0.5;entryDx=0;entryDy=0;fontFamily=Architects Daughter;fontSource=https%3A%2F%2Ffonts.googleapis.com%2Fcss%3Ffamily%3DArchitects%2BDaughter;curved=1;" edge="1" parent="1" source="1RPcp6b-KM-TzmGu6j6Q-28" target="1RPcp6b-KM-TzmGu6j6Q-24">
          <mxGeometry relative="1" as="geometry" />
        </mxCell>
        <mxCell id="1RPcp6b-KM-TzmGu6j6Q-28" value="&lt;font style=&quot;font-size: 20px;&quot;&gt;Client&lt;/font&gt;" style="rounded=0;whiteSpace=wrap;html=1;sketch=1;hachureGap=4;jiggle=2;curveFitting=1;fontFamily=Architects Daughter;fontSource=https%3A%2F%2Ffonts.googleapis.com%2Fcss%3Ffamily%3DArchitects%2BDaughter;" vertex="1" parent="1">
          <mxGeometry x="-720" y="-35" width="120" height="60" as="geometry" />
        </mxCell>
        <mxCell id="1RPcp6b-KM-TzmGu6j6Q-30" value="&lt;font style=&quot;font-size: 24px;&quot;&gt;Home network&lt;/font&gt;" style="rounded=0;whiteSpace=wrap;html=1;sketch=1;hachureGap=4;jiggle=2;curveFitting=1;fontFamily=Architects Daughter;fontSource=https%3A%2F%2Ffonts.googleapis.com%2Fcss%3Ffamily%3DArchitects%2BDaughter;labelPosition=center;verticalLabelPosition=top;align=center;verticalAlign=bottom;" vertex="1" parent="1">
          <mxGeometry x="80" y="-125" width="480" height="435" as="geometry" />
        </mxCell>
        <mxCell id="1RPcp6b-KM-TzmGu6j6Q-33" style="rounded=0;sketch=1;hachureGap=4;jiggle=2;curveFitting=1;orthogonalLoop=1;jettySize=auto;html=1;exitX=0;exitY=0.5;exitDx=0;exitDy=0;entryX=1;entryY=0.5;entryDx=0;entryDy=0;fontFamily=Architects Daughter;fontSource=https%3A%2F%2Ffonts.googleapis.com%2Fcss%3Ffamily%3DArchitects%2BDaughter;edgeStyle=orthogonalEdgeStyle;curved=1;" edge="1" parent="1" source="1RPcp6b-KM-TzmGu6j6Q-31" target="1RPcp6b-KM-TzmGu6j6Q-25">
          <mxGeometry relative="1" as="geometry" />
        </mxCell>
        <mxCell id="1RPcp6b-KM-TzmGu6j6Q-39" value="&lt;font style=&quot;font-size: 16px;&quot;&gt;SSH / HTTPS&lt;/font&gt;" style="edgeLabel;html=1;align=center;verticalAlign=middle;resizable=0;points=[];sketch=1;hachureGap=4;jiggle=2;curveFitting=1;fontFamily=Architects Daughter;fontSource=https%3A%2F%2Ffonts.googleapis.com%2Fcss%3Ffamily%3DArchitects%2BDaughter;" vertex="1" connectable="0" parent="1RPcp6b-KM-TzmGu6j6Q-33">
          <mxGeometry x="-0.0784" y="4" relative="1" as="geometry">
            <mxPoint y="1" as="offset" />
          </mxGeometry>
        </mxCell>
        <mxCell id="1RPcp6b-KM-TzmGu6j6Q-31" value="&lt;font style=&quot;font-size: 20px;&quot;&gt;inlets-pro tcp client&lt;/font&gt;" style="rounded=0;whiteSpace=wrap;html=1;sketch=1;hachureGap=4;jiggle=2;curveFitting=1;fontFamily=Architects Daughter;fontSource=https%3A%2F%2Ffonts.googleapis.com%2Fcss%3Ffamily%3DArchitects%2BDaughter;" vertex="1" parent="1">
          <mxGeometry x="165" y="-100" width="310" height="60" as="geometry" />
        </mxCell>
        <mxCell id="1RPcp6b-KM-TzmGu6j6Q-38" style="edgeStyle=orthogonalEdgeStyle;rounded=0;sketch=1;hachureGap=4;jiggle=2;curveFitting=1;orthogonalLoop=1;jettySize=auto;html=1;exitX=0.5;exitY=1;exitDx=0;exitDy=0;fontFamily=Architects Daughter;fontSource=https%3A%2F%2Ffonts.googleapis.com%2Fcss%3Ffamily%3DArchitects%2BDaughter;curved=1;endArrow=none;startFill=0;" edge="1" parent="1" source="1RPcp6b-KM-TzmGu6j6Q-34" target="1RPcp6b-KM-TzmGu6j6Q-37">
          <mxGeometry relative="1" as="geometry" />
        </mxCell>
        <mxCell id="1RPcp6b-KM-TzmGu6j6Q-40" value="&lt;font style=&quot;font-size: 16px;&quot;&gt;HTTPS&lt;/font&gt;" style="edgeLabel;html=1;align=center;verticalAlign=middle;resizable=0;points=[];sketch=1;hachureGap=4;jiggle=2;curveFitting=1;fontFamily=Architects Daughter;fontSource=https%3A%2F%2Ffonts.googleapis.com%2Fcss%3Ffamily%3DArchitects%2BDaughter;" vertex="1" connectable="0" parent="1RPcp6b-KM-TzmGu6j6Q-38">
          <mxGeometry x="-0.0549" y="1" relative="1" as="geometry">
            <mxPoint x="1" as="offset" />
          </mxGeometry>
        </mxCell>
        <mxCell id="1RPcp6b-KM-TzmGu6j6Q-42" style="edgeStyle=orthogonalEdgeStyle;rounded=0;sketch=1;hachureGap=4;jiggle=2;curveFitting=1;orthogonalLoop=1;jettySize=auto;html=1;exitX=0.5;exitY=1;exitDx=0;exitDy=0;entryX=0.5;entryY=0;entryDx=0;entryDy=0;fontFamily=Architects Daughter;fontSource=https%3A%2F%2Ffonts.googleapis.com%2Fcss%3Ffamily%3DArchitects%2BDaughter;endArrow=none;startFill=0;curved=1;" edge="1" parent="1" source="1RPcp6b-KM-TzmGu6j6Q-34" target="1RPcp6b-KM-TzmGu6j6Q-41">
          <mxGeometry relative="1" as="geometry" />
        </mxCell>
        <mxCell id="1RPcp6b-KM-TzmGu6j6Q-43" value="&lt;font style=&quot;font-size: 16px;&quot;&gt;SSH&lt;/font&gt;" style="edgeLabel;html=1;align=center;verticalAlign=middle;resizable=0;points=[];sketch=1;hachureGap=4;jiggle=2;curveFitting=1;fontFamily=Architects Daughter;fontSource=https%3A%2F%2Ffonts.googleapis.com%2Fcss%3Ffamily%3DArchitects%2BDaughter;" vertex="1" connectable="0" parent="1RPcp6b-KM-TzmGu6j6Q-42">
          <mxGeometry x="0.2571" y="-2" relative="1" as="geometry">
            <mxPoint as="offset" />
          </mxGeometry>
        </mxCell>
        <mxCell id="1RPcp6b-KM-TzmGu6j6Q-45" style="edgeStyle=orthogonalEdgeStyle;rounded=0;sketch=1;hachureGap=4;jiggle=2;curveFitting=1;orthogonalLoop=1;jettySize=auto;html=1;exitX=0.5;exitY=1;exitDx=0;exitDy=0;entryX=0.5;entryY=0;entryDx=0;entryDy=0;fontFamily=Architects Daughter;fontSource=https%3A%2F%2Ffonts.googleapis.com%2Fcss%3Ffamily%3DArchitects%2BDaughter;endArrow=none;startFill=0;curved=1;" edge="1" parent="1" source="1RPcp6b-KM-TzmGu6j6Q-34" target="1RPcp6b-KM-TzmGu6j6Q-44">
          <mxGeometry relative="1" as="geometry" />
        </mxCell>
        <mxCell id="1RPcp6b-KM-TzmGu6j6Q-46" value="&lt;font style=&quot;font-size: 16px;&quot;&gt;SSH&lt;/font&gt;" style="edgeLabel;html=1;align=center;verticalAlign=middle;resizable=0;points=[];sketch=1;hachureGap=4;jiggle=2;curveFitting=1;fontFamily=Architects Daughter;fontSource=https%3A%2F%2Ffonts.googleapis.com%2Fcss%3Ffamily%3DArchitects%2BDaughter;" vertex="1" connectable="0" parent="1RPcp6b-KM-TzmGu6j6Q-45">
          <mxGeometry x="0.7412" y="-17" relative="1" as="geometry">
            <mxPoint as="offset" />
          </mxGeometry>
        </mxCell>
        <mxCell id="1RPcp6b-KM-TzmGu6j6Q-34" value="&lt;font style=&quot;font-size: 20px;&quot;&gt;inlets-pro snimux server&lt;/font&gt;" style="rounded=0;whiteSpace=wrap;html=1;sketch=1;hachureGap=4;jiggle=2;curveFitting=1;fontFamily=Architects Daughter;fontSource=https%3A%2F%2Ffonts.googleapis.com%2Fcss%3Ffamily%3DArchitects%2BDaughter;" vertex="1" parent="1">
          <mxGeometry x="165" y="5" width="310" height="60" as="geometry" />
        </mxCell>
        <mxCell id="1RPcp6b-KM-TzmGu6j6Q-35" style="edgeStyle=orthogonalEdgeStyle;rounded=0;sketch=1;hachureGap=4;jiggle=2;curveFitting=1;orthogonalLoop=1;jettySize=auto;html=1;exitX=0.5;exitY=0;exitDx=0;exitDy=0;entryX=0.477;entryY=1.033;entryDx=0;entryDy=0;entryPerimeter=0;fontFamily=Architects Daughter;fontSource=https%3A%2F%2Ffonts.googleapis.com%2Fcss%3Ffamily%3DArchitects%2BDaughter;endArrow=none;startFill=0;curved=1;" edge="1" parent="1" source="1RPcp6b-KM-TzmGu6j6Q-34" target="1RPcp6b-KM-TzmGu6j6Q-31">
          <mxGeometry relative="1" as="geometry" />
        </mxCell>
        <mxCell id="1RPcp6b-KM-TzmGu6j6Q-37" value="&lt;font style=&quot;font-size: 20px;&quot;&gt;k3s&lt;/font&gt;" style="whiteSpace=wrap;html=1;aspect=fixed;sketch=1;hachureGap=4;jiggle=2;curveFitting=1;fontFamily=Architects Daughter;fontSource=https%3A%2F%2Ffonts.googleapis.com%2Fcss%3Ffamily%3DArchitects%2BDaughter;" vertex="1" parent="1">
          <mxGeometry x="130" y="170" width="80" height="80" as="geometry" />
        </mxCell>
        <mxCell id="1RPcp6b-KM-TzmGu6j6Q-41" value="RPI" style="whiteSpace=wrap;html=1;aspect=fixed;sketch=1;hachureGap=4;jiggle=2;curveFitting=1;fontFamily=Architects Daughter;fontSource=https%3A%2F%2Ffonts.googleapis.com%2Fcss%3Ffamily%3DArchitects%2BDaughter;" vertex="1" parent="1">
          <mxGeometry x="280" y="170" width="80" height="80" as="geometry" />
        </mxCell>
        <mxCell id="1RPcp6b-KM-TzmGu6j6Q-44" value="&lt;font style=&quot;font-size: 16px;&quot;&gt;NAS&lt;/font&gt;" style="whiteSpace=wrap;html=1;aspect=fixed;sketch=1;hachureGap=4;jiggle=2;curveFitting=1;fontFamily=Architects Daughter;fontSource=https%3A%2F%2Ffonts.googleapis.com%2Fcss%3Ffamily%3DArchitects%2BDaughter;" vertex="1" parent="1">
          <mxGeometry x="430" y="170" width="80" height="80" as="geometry" />
        </mxCell>
      </root>
    </mxGraphModel>
  </diagram>
</mxfile>
